<svg width="74" height="74" viewBox="0 0 74 74" fill="none" xmlns="http://www.w3.org/2000/svg">
<rect width="74" height="74" rx="37" fill="url(#paint0_linear_1_78)"/>
<g clip-path="url(#clip0_1_78)">
<path d="M21.0645 51.6967H37V50.4707H21.0645C20.049 50.4707 19.2258 49.6474 19.2258 48.632V21.6642C19.2258 20.6485 20.049 19.8255 21.0645 19.8255H48.0322C49.0481 19.8255 49.8709 20.6485 49.8709 21.6642V35.7609H51.097V21.6642C51.095 19.9725 49.7241 18.6017 48.0322 18.5997H21.0645C19.3731 18.6017 18.0022 19.9725 18 21.6642V48.632C18.0022 50.3236 19.3731 51.6944 21.0645 51.6967Z" fill="black"/>
<path d="M20.4518 21.0516H21.6774V22.2772H20.4518V21.0516Z" fill="black"/>
<path d="M22.9032 21.0516H24.1292V22.2772H22.9032V21.0516Z" fill="black"/>
<path d="M25.3548 21.0516H26.5807V22.2772H25.3548V21.0516Z" fill="black"/>
<path d="M20.4518 23.5029H48.6451V24.729H20.4518V23.5029Z" fill="black"/>
<path d="M26.7602 26.1342L25.2034 27.691C23.8875 26.8198 22.1253 27.0871 21.1266 28.3093C20.128 29.5314 20.2176 31.3115 21.3335 32.4273C22.4493 33.5435 24.2296 33.6331 25.4518 32.6344C26.6739 31.6358 26.9413 29.8733 26.07 28.5577L27.6266 27.0009L26.7602 26.1342ZM23.5159 32.0835C22.5006 32.0835 21.6773 31.2604 21.6773 30.2449C21.6773 29.2293 22.5006 28.4064 23.5159 28.4064C23.7893 28.4073 24.0583 28.47 24.3036 28.59L23.0828 29.8109L23.9492 30.6777L25.171 29.4575C25.291 29.7026 25.3538 29.9716 25.3547 30.2449C25.3547 31.2604 24.5318 32.0835 23.5159 32.0835Z" fill="black"/>
<path d="M28.4193 28.4064H38.8384V29.632H28.4193V28.4064Z" fill="black"/>
<path d="M28.4193 30.8579H32.7095V32.0835H28.4193V30.8579Z" fill="black"/>
<path d="M33.9356 30.8579H42.516V32.0835H33.9356V30.8579Z" fill="black"/>
<path d="M40.0645 28.4064H46.1935V29.632H40.0645V28.4064Z" fill="black"/>
<path d="M26.7602 33.489L25.2034 35.0458C23.8875 34.1746 22.1253 34.4419 21.1266 35.6641C20.128 36.8863 20.2176 38.6663 21.3335 39.7824C22.4493 40.8983 24.2296 40.9879 25.4518 39.9892C26.6739 38.9905 26.9413 37.2286 26.07 35.9125L27.6266 34.3557L26.7602 33.489ZM23.5159 39.4385C22.5006 39.4385 21.6773 38.6152 21.6773 37.5997C21.6773 36.5842 22.5006 35.7609 23.5159 35.7609C23.7893 35.762 24.0583 35.8248 24.3036 35.9448L23.0828 37.1661L23.9492 38.0325L25.171 36.8121C25.291 37.0575 25.3538 37.3265 25.3547 37.5997C25.3547 38.6152 24.5318 39.4385 23.5159 39.4385Z" fill="black"/>
<path d="M28.4193 35.7609H38.8384V36.9868H28.4193V35.7609Z" fill="black"/>
<path d="M28.4193 38.2127H32.7095V39.4384H28.4193V38.2127Z" fill="black"/>
<path d="M33.9356 38.2127H38.8386V39.4384H33.9356V38.2127Z" fill="black"/>
<path d="M40.0645 35.7609H42.516V36.9868H40.0645V35.7609Z" fill="black"/>
<path d="M26.7602 40.8438L25.2034 42.4006C23.8875 41.5294 22.1253 41.7967 21.1266 43.0189C20.128 44.2411 20.2176 46.0212 21.3335 47.1372C22.4493 48.2533 24.2296 48.3426 25.4518 47.344C26.6739 46.3453 26.9413 44.5833 26.07 43.2672L27.6266 41.7105L26.7602 40.8438ZM23.5159 46.7933C22.5006 46.7933 21.6773 45.97 21.6773 44.9546C21.6773 43.939 22.5006 43.1159 23.5159 43.1159C23.7893 43.1168 24.0583 43.1795 24.3036 43.2996L23.0828 44.5209L23.9492 45.3873L25.171 44.1669C25.291 44.4123 25.3538 44.6814 25.3547 44.9546C25.3547 45.97 24.5318 46.7933 23.5159 46.7933Z" fill="black"/>
<path d="M28.4193 43.1158H36.3869V44.3419H28.4193V43.1158Z" fill="black"/>
<path d="M28.4193 45.5675H32.7095V46.7933H28.4193V45.5675Z" fill="black"/>
<path d="M33.9356 45.5675H36.3871V46.7933H33.9356V45.5675Z" fill="black"/>
<path d="M46.8065 55.3741C51.8842 55.3741 55.9999 51.2577 55.9999 46.1805C55.9999 41.1028 51.8842 36.9868 46.8065 36.9868C41.7289 36.9868 37.6129 41.1028 37.6129 46.1805C37.6188 51.2554 41.7313 55.368 46.8065 55.3741ZM46.8065 38.2127C51.2067 38.2127 54.7743 41.7799 54.7743 46.1805C54.7743 50.581 51.2067 54.1481 46.8065 54.1481C42.4059 54.1481 38.8385 50.581 38.8385 46.1805C38.8437 41.7821 42.4079 38.2176 46.8065 38.2127Z" fill="black"/>
<path d="M43.0679 46.5192L41.9708 47.067L43.1967 49.5187C43.2845 49.695 43.4523 49.8184 43.6469 49.8499C43.6786 49.8548 43.7102 49.8574 43.742 49.8579C43.9044 49.8579 44.0603 49.7932 44.1756 49.6783L51.5301 42.3235L50.6636 41.4567L43.9098 48.2103L43.0679 46.5192Z" fill="black"/>
<g clip-path="url(#clip1_1_78)">
<path d="M21.0645 51.6967H37V50.4707H21.0645C20.049 50.4707 19.2258 49.6474 19.2258 48.632V21.6642C19.2258 20.6485 20.049 19.8255 21.0645 19.8255H48.0322C49.0481 19.8255 49.8709 20.6485 49.8709 21.6642V35.7609H51.097V21.6642C51.095 19.9725 49.7241 18.6017 48.0322 18.5997H21.0645C19.3731 18.6017 18.0022 19.9725 18 21.6642V48.632C18.0022 50.3236 19.3731 51.6944 21.0645 51.6967Z" fill="white"/>
<path d="M20.4518 21.0516H21.6774V22.2772H20.4518V21.0516Z" fill="white"/>
<path d="M22.9032 21.0516H24.1292V22.2772H22.9032V21.0516Z" fill="white"/>
<path d="M25.3548 21.0516H26.5807V22.2772H25.3548V21.0516Z" fill="white"/>
<path d="M20.4518 23.5029H48.6451V24.729H20.4518V23.5029Z" fill="white"/>
<path d="M26.7602 26.1342L25.2034 27.691C23.8875 26.8198 22.1253 27.0871 21.1266 28.3093C20.128 29.5314 20.2176 31.3115 21.3335 32.4273C22.4493 33.5435 24.2296 33.6331 25.4518 32.6344C26.6739 31.6358 26.9413 29.8733 26.07 28.5577L27.6266 27.0009L26.7602 26.1342ZM23.5159 32.0835C22.5006 32.0835 21.6773 31.2604 21.6773 30.2449C21.6773 29.2293 22.5006 28.4064 23.5159 28.4064C23.7893 28.4073 24.0583 28.47 24.3036 28.59L23.0828 29.8109L23.9492 30.6777L25.171 29.4575C25.291 29.7026 25.3538 29.9716 25.3547 30.2449C25.3547 31.2604 24.5318 32.0835 23.5159 32.0835Z" fill="white"/>
<path d="M28.4193 28.4064H38.8384V29.632H28.4193V28.4064Z" fill="white"/>
<path d="M28.4193 30.8579H32.7095V32.0835H28.4193V30.8579Z" fill="white"/>
<path d="M33.9356 30.8579H42.516V32.0835H33.9356V30.8579Z" fill="white"/>
<path d="M40.0645 28.4064H46.1935V29.632H40.0645V28.4064Z" fill="white"/>
<path d="M26.7602 33.489L25.2034 35.0458C23.8875 34.1746 22.1253 34.4419 21.1266 35.6641C20.128 36.8863 20.2176 38.6663 21.3335 39.7824C22.4493 40.8983 24.2296 40.9879 25.4518 39.9892C26.6739 38.9905 26.9413 37.2286 26.07 35.9125L27.6266 34.3557L26.7602 33.489ZM23.5159 39.4385C22.5006 39.4385 21.6773 38.6152 21.6773 37.5997C21.6773 36.5842 22.5006 35.7609 23.5159 35.7609C23.7893 35.762 24.0583 35.8248 24.3036 35.9448L23.0828 37.1661L23.9492 38.0325L25.171 36.8121C25.291 37.0575 25.3538 37.3265 25.3547 37.5997C25.3547 38.6152 24.5318 39.4385 23.5159 39.4385Z" fill="white"/>
<path d="M28.4193 35.7609H38.8384V36.9868H28.4193V35.7609Z" fill="white"/>
<path d="M28.4193 38.2127H32.7095V39.4384H28.4193V38.2127Z" fill="white"/>
<path d="M33.9356 38.2127H38.8386V39.4384H33.9356V38.2127Z" fill="white"/>
<path d="M40.0645 35.7609H42.516V36.9868H40.0645V35.7609Z" fill="white"/>
<path d="M26.7602 40.8438L25.2034 42.4006C23.8875 41.5294 22.1253 41.7967 21.1266 43.0189C20.128 44.2411 20.2176 46.0212 21.3335 47.1372C22.4493 48.2533 24.2296 48.3426 25.4518 47.344C26.6739 46.3453 26.9413 44.5833 26.07 43.2672L27.6266 41.7105L26.7602 40.8438ZM23.5159 46.7933C22.5006 46.7933 21.6773 45.97 21.6773 44.9546C21.6773 43.939 22.5006 43.1159 23.5159 43.1159C23.7893 43.1168 24.0583 43.1795 24.3036 43.2996L23.0828 44.5209L23.9492 45.3873L25.171 44.1669C25.291 44.4123 25.3538 44.6814 25.3547 44.9546C25.3547 45.97 24.5318 46.7933 23.5159 46.7933Z" fill="white"/>
<path d="M28.4193 43.1158H36.3869V44.3419H28.4193V43.1158Z" fill="white"/>
<path d="M28.4193 45.5675H32.7095V46.7933H28.4193V45.5675Z" fill="white"/>
<path d="M33.9356 45.5675H36.3871V46.7933H33.9356V45.5675Z" fill="white"/>
<path d="M46.8065 55.3741C51.8842 55.3741 55.9999 51.2577 55.9999 46.1805C55.9999 41.1028 51.8842 36.9868 46.8065 36.9868C41.7289 36.9868 37.6129 41.1028 37.6129 46.1805C37.6188 51.2554 41.7313 55.368 46.8065 55.3741ZM46.8065 38.2127C51.2067 38.2127 54.7743 41.7799 54.7743 46.1805C54.7743 50.581 51.2067 54.1481 46.8065 54.1481C42.4059 54.1481 38.8385 50.581 38.8385 46.1805C38.8437 41.7821 42.4079 38.2176 46.8065 38.2127Z" fill="white"/>
<path d="M43.0679 46.5192L41.9708 47.067L43.1967 49.5187C43.2845 49.695 43.4523 49.8184 43.6469 49.8499C43.6786 49.8548 43.7102 49.8574 43.742 49.8579C43.9044 49.8579 44.0603 49.7932 44.1756 49.6783L51.5301 42.3235L50.6636 41.4567L43.9098 48.2103L43.0679 46.5192Z" fill="white"/>
</g>
</g>
<defs>
<linearGradient id="paint0_linear_1_78" x1="37" y1="0" x2="37" y2="74" gradientUnits="userSpaceOnUse">
<stop stop-color="#8A7FD9"/>
<stop offset="1" stop-color="#402F8F"/>
</linearGradient>
<clipPath id="clip0_1_78">
<rect width="38" height="38" fill="white" transform="translate(18 18)"/>
</clipPath>
<clipPath id="clip1_1_78">
<rect width="38" height="38" fill="white" transform="translate(18 18)"/>
</clipPath>
</defs>
</svg>
